<?xml version="1.0" encoding="utf-8"?>
<!-- Svg Vector Icons : http://www.onlinewebfonts.com/icon -->
<!DOCTYPE svg PUBLIC "-//W3C//DTD SVG 1.1//EN" "http://www.w3.org/Graphics/SVG/1.1/DTD/svg11.dtd">
<svg version="1.1" xmlns="http://www.w3.org/2000/svg" xmlns:xlink="http://www.w3.org/1999/xlink" x="0px" y="0px" viewBox="0 0 1000 1000" enable-background="new 0 0 1000 1000" xml:space="preserve">
<metadata> Svg Vector Icons : http://www.onlinewebfonts.com/icon </metadata>
<g><path d="M711.6,315.1c-17.2-13.3-41.9-9.5-55.3,7.6L442.8,614.4L341.8,490.5c-13.3-17.2-38.1-19.1-55.3-5.7c-17.2,13.3-19.1,38.1-5.7,55.3l131.6,164c7.6,9.5,19.1,15.3,30.5,15.3l0,0c11.4,0,22.9-5.7,30.5-15.3l244-333.7C732.6,353.2,728.8,328.4,711.6,315.1z"/><path d="M500,10C229.3,10,10,229.3,10,500s219.3,490,490,490c270.7,0,490-219.3,490-490S770.7,10,500,10z M500,894.7c-217.4,0-394.7-177.3-394.7-394.7c0-217.4,177.3-394.7,394.7-394.7c217.4,0,394.7,177.3,394.7,394.7C894.7,717.4,717.4,894.7,500,894.7z"/></g>
</svg>